<svg width="139" height="99" viewBox="0 0 139 99" fill="none" xmlns="http://www.w3.org/2000/svg">
<path d="M56.0416 86.2168L121.803 20.4558C122.584 19.6748 123.85 19.6748 124.631 20.4558L134.53 30.3553C135.312 31.1364 135.312 32.4027 134.53 33.1838L68.7695 98.9447L56.0416 86.2168Z" fill="black"/>
<path d="M45.7807 50.5L81.4975 86.2168L68.7695 98.9447L33.0528 63.2279L45.7807 50.5Z" fill="black"/>
<path d="M68.2304 3.0553L2.46951 68.8162C1.68847 69.5973 1.68847 70.8636 2.46951 71.6447L12.369 81.5442C13.1501 82.3252 14.4164 82.3252 15.1974 81.5441L68.2304 28.5111L92.2721 52.5528L105 39.8248L68.2304 3.0553ZM68.2304 3.0553L55.5025 15.7832" stroke="black" stroke-width="3"/>
</svg>
