<svg width="24" height="24" viewBox="0 0 24 24" fill="none" xmlns="http://www.w3.org/2000/svg">
<path d="M7 7.575C7 8.67957 6.10457 9.575 5 9.575C3.89543 9.575 3 8.67957 3 7.575C3 6.47043 3.89543 5.575 5 5.575C6.10457 5.575 7 6.47043 7 7.575Z" fill="black"/>
<path d="M7 15.575C7 16.6796 6.10457 17.575 5 17.575C3.89543 17.575 3 16.6796 3 15.575C3 14.4704 3.89543 13.575 5 13.575C6.10457 13.575 7 14.4704 7 15.575Z" fill="black"/>
<path d="M12 16.65V14.65H21V16.65H12ZM12 8.65V6.65H21V8.65H12Z" fill="black"/>
</svg>
