<svg width="24" height="24" viewBox="0 0 24 24" fill="none" xmlns="http://www.w3.org/2000/svg">
<path fill-rule="evenodd" clip-rule="evenodd" d="M3.6 20.4C3.96926 20.7768 4.47246 20.9925 5 21H19C19.5275 20.9925 20.0307 20.7768 20.4 20.4C20.8 20 21 19.6 21 19V5C21 4.5 20.8 4 20.4 3.6C20 3.2 19.6 3 19 3H5C4.47246 3.00751 3.96926 3.22317 3.6 3.6C3.2 4 3 4.5 3 5V19C3.00751 19.5275 3.22317 20.0307 3.6 20.4ZM17.6 9.2L10.6 16.2L6.40002 11.9L7.80002 10.6L10.6 13.4L16.2 7.8L17.6 9.2Z" fill="black"/>
</svg>
