<svg width="24" height="24" viewBox="0 0 24 24" fill="none" xmlns="http://www.w3.org/2000/svg">
<path d="M12 17.075V15.075H21V17.075H12ZM12 9.075V7.075H21V9.075H12Z" fill="black"/>
<path d="M7.21499 4.06999V10.8H5.67499V5.62499L4.24999 6.51499L3.57999 5.42999L5.81499 4.06999H7.21499ZM8.50999 9.80499V11H4.00499V9.80499H8.50999Z" fill="black"/>
<path d="M5.75999 12.895C6.28666 12.895 6.72666 12.9867 7.07999 13.17C7.43666 13.3533 7.70332 13.5967 7.87999 13.9C8.05999 14.2 8.14999 14.5267 8.14999 14.88C8.14999 15.16 8.10166 15.435 8.00499 15.705C7.91166 15.9717 7.75666 16.255 7.53999 16.555C7.32332 16.8517 7.03499 17.1817 6.67499 17.545C6.31832 17.9083 5.87666 18.325 5.34999 18.795H8.30999L8.13999 20H3.53499V18.88C3.99166 18.44 4.38832 18.05 4.72499 17.71C5.06166 17.37 5.34499 17.0683 5.57499 16.805C5.80832 16.5417 5.99499 16.3067 6.13499 16.1C6.27832 15.8933 6.38166 15.7033 6.44499 15.53C6.50832 15.3533 6.53999 15.1833 6.53999 15.02C6.53999 14.74 6.45832 14.5183 6.29499 14.355C6.13499 14.1917 5.90666 14.11 5.60999 14.11C5.34666 14.11 5.11832 14.165 4.92499 14.275C4.73166 14.385 4.54499 14.5633 4.36499 14.81L3.39499 14.08C3.65499 13.72 3.97499 13.4333 4.35499 13.22C4.73499 13.0033 5.20332 12.895 5.75999 12.895Z" fill="black"/>
</svg>
