<svg width="24" height="24" viewBox="0 0 24 24" fill="none" xmlns="http://www.w3.org/2000/svg">
<path d="M4 22.025C3.45 22.025 2.97917 21.8292 2.5875 21.4375C2.19583 21.0458 2 20.575 2 20.025V6.025C2 5.475 2.19583 5.00417 2.5875 4.6125C2.97917 4.22083 3.45 4.025 4 4.025H12.925L10.925 6.025H4V20.025H18V13.075L20 11.075V20.025C20 20.575 19.8042 21.0458 19.4125 21.4375C19.0208 21.8292 18.55 22.025 18 22.025H4ZM8 16.025V11.775L17.175 2.6C17.375 2.4 17.6 2.25 17.85 2.15C18.1 2.05 18.35 2 18.6 2C18.8667 2 19.1208 2.05 19.3625 2.15C19.6042 2.25 19.825 2.4 20.025 2.6L21.425 4.025C21.6083 4.225 21.75 4.44583 21.85 4.6875C21.95 4.92917 22 5.175 22 5.425C22 5.675 21.9542 5.92083 21.8625 6.1625C21.7708 6.40417 21.625 6.625 21.425 6.825L12.25 16.025H8ZM10 14.025H11.4L17.2 8.225L16.5 7.525L15.775 6.825L10 12.6V14.025Z" fill="white"/>
</svg>
